<mxfile host="app.diagrams.net" modified="2023-11-12T19:51:10.670Z" agent="Mozilla/5.0 (Windows NT 10.0; Win64; x64) AppleWebKit/537.36 (KHTML, like Gecko) Chrome/119.0.0.0 Safari/537.36" etag="7FBp6Ne4Ax_IJ4GjTz_-" version="22.1.0" type="device">
  <diagram id="C5RBs43oDa-KdzZeNtuy" name="Page-1">
    <mxGraphModel dx="875" dy="472" grid="1" gridSize="10" guides="1" tooltips="1" connect="1" arrows="1" fold="1" page="1" pageScale="1" pageWidth="827" pageHeight="1169" math="0" shadow="0">
      <root>
        <mxCell id="WIyWlLk6GJQsqaUBKTNV-0" />
        <mxCell id="WIyWlLk6GJQsqaUBKTNV-1" parent="WIyWlLk6GJQsqaUBKTNV-0" />
        <mxCell id="1sotOOmaOnDe8E1qVTRt-1" style="edgeStyle=orthogonalEdgeStyle;rounded=0;orthogonalLoop=1;jettySize=auto;html=1;" parent="WIyWlLk6GJQsqaUBKTNV-1" source="1sotOOmaOnDe8E1qVTRt-0" target="1sotOOmaOnDe8E1qVTRt-3" edge="1">
          <mxGeometry relative="1" as="geometry">
            <mxPoint x="233" y="50" as="targetPoint" />
          </mxGeometry>
        </mxCell>
        <mxCell id="1sotOOmaOnDe8E1qVTRt-0" value="Camera" style="rounded=0;whiteSpace=wrap;html=1;" parent="WIyWlLk6GJQsqaUBKTNV-1" vertex="1">
          <mxGeometry x="23" y="20" width="120" height="60" as="geometry" />
        </mxCell>
        <mxCell id="1sotOOmaOnDe8E1qVTRt-4" style="edgeStyle=orthogonalEdgeStyle;rounded=0;orthogonalLoop=1;jettySize=auto;html=1;entryX=0;entryY=0.25;entryDx=0;entryDy=0;exitX=1;exitY=0.25;exitDx=0;exitDy=0;" parent="WIyWlLk6GJQsqaUBKTNV-1" target="1sotOOmaOnDe8E1qVTRt-6" edge="1" source="1sotOOmaOnDe8E1qVTRt-3">
          <mxGeometry relative="1" as="geometry">
            <mxPoint x="353" y="40" as="targetPoint" />
            <mxPoint x="293" y="40.02857142857141" as="sourcePoint" />
          </mxGeometry>
        </mxCell>
        <mxCell id="1sotOOmaOnDe8E1qVTRt-3" value="HDMI Splitter" style="rounded=0;whiteSpace=wrap;html=1;" parent="WIyWlLk6GJQsqaUBKTNV-1" vertex="1">
          <mxGeometry x="190" y="30" width="97" height="40" as="geometry" />
        </mxCell>
        <mxCell id="1sotOOmaOnDe8E1qVTRt-5" style="edgeStyle=orthogonalEdgeStyle;rounded=0;orthogonalLoop=1;jettySize=auto;html=1;entryX=0;entryY=0.75;entryDx=0;entryDy=0;exitX=1;exitY=0.75;exitDx=0;exitDy=0;" parent="WIyWlLk6GJQsqaUBKTNV-1" target="1sotOOmaOnDe8E1qVTRt-6" edge="1" source="1sotOOmaOnDe8E1qVTRt-3">
          <mxGeometry relative="1" as="geometry">
            <mxPoint x="353" y="60" as="targetPoint" />
            <mxPoint x="293" y="60" as="sourcePoint" />
          </mxGeometry>
        </mxCell>
        <mxCell id="1sotOOmaOnDe8E1qVTRt-6" value="HDMI Capture Card" style="rounded=0;whiteSpace=wrap;html=1;" parent="WIyWlLk6GJQsqaUBKTNV-1" vertex="1">
          <mxGeometry x="330" y="30" width="97" height="40" as="geometry" />
        </mxCell>
        <mxCell id="1sotOOmaOnDe8E1qVTRt-9" value="" style="rounded=0;whiteSpace=wrap;html=1;" parent="WIyWlLk6GJQsqaUBKTNV-1" vertex="1">
          <mxGeometry x="460" y="20" width="190" height="230" as="geometry" />
        </mxCell>
        <mxCell id="1sotOOmaOnDe8E1qVTRt-13" style="edgeStyle=orthogonalEdgeStyle;rounded=0;orthogonalLoop=1;jettySize=auto;html=1;exitX=1;exitY=0.25;exitDx=0;exitDy=0;entryX=-0.015;entryY=0.173;entryDx=0;entryDy=0;entryPerimeter=0;" parent="WIyWlLk6GJQsqaUBKTNV-1" source="1sotOOmaOnDe8E1qVTRt-6" target="1sotOOmaOnDe8E1qVTRt-18" edge="1">
          <mxGeometry relative="1" as="geometry" />
        </mxCell>
        <mxCell id="1sotOOmaOnDe8E1qVTRt-16" value="&lt;i&gt;Laptop / Desktop&lt;/i&gt;" style="text;html=1;strokeColor=none;fillColor=none;align=center;verticalAlign=middle;whiteSpace=wrap;rounded=0;strokeWidth=1;perimeterSpacing=1;fontStyle=1;fontSize=13;" parent="WIyWlLk6GJQsqaUBKTNV-1" vertex="1">
          <mxGeometry x="532" y="217" width="120" height="30" as="geometry" />
        </mxCell>
        <mxCell id="1sotOOmaOnDe8E1qVTRt-34" style="edgeStyle=orthogonalEdgeStyle;rounded=0;orthogonalLoop=1;jettySize=auto;html=1;entryX=0.75;entryY=0;entryDx=0;entryDy=0;" parent="WIyWlLk6GJQsqaUBKTNV-1" source="1sotOOmaOnDe8E1qVTRt-18" target="1sotOOmaOnDe8E1qVTRt-28" edge="1">
          <mxGeometry relative="1" as="geometry" />
        </mxCell>
        <mxCell id="1sotOOmaOnDe8E1qVTRt-18" value="Rocket Detection" style="rounded=0;whiteSpace=wrap;html=1;" parent="WIyWlLk6GJQsqaUBKTNV-1" vertex="1">
          <mxGeometry x="550" y="30" width="70" height="60" as="geometry" />
        </mxCell>
        <mxCell id="1sotOOmaOnDe8E1qVTRt-19" value="Video" style="text;html=1;strokeColor=none;fillColor=none;align=center;verticalAlign=middle;whiteSpace=wrap;rounded=0;fontSize=10;" parent="WIyWlLk6GJQsqaUBKTNV-1" vertex="1">
          <mxGeometry x="476" y="21" width="60" height="20" as="geometry" />
        </mxCell>
        <mxCell id="1sotOOmaOnDe8E1qVTRt-21" value="" style="rounded=0;whiteSpace=wrap;html=1;" parent="WIyWlLk6GJQsqaUBKTNV-1" vertex="1">
          <mxGeometry x="270" y="146" width="80" height="52" as="geometry" />
        </mxCell>
        <mxCell id="XWVPZUWGON_07wP0o8BE-1" style="edgeStyle=orthogonalEdgeStyle;rounded=0;orthogonalLoop=1;jettySize=auto;html=1;entryX=1;entryY=0.5;entryDx=0;entryDy=0;" edge="1" parent="WIyWlLk6GJQsqaUBKTNV-1" source="1sotOOmaOnDe8E1qVTRt-23" target="1sotOOmaOnDe8E1qVTRt-45">
          <mxGeometry relative="1" as="geometry" />
        </mxCell>
        <mxCell id="1sotOOmaOnDe8E1qVTRt-23" value="&lt;i&gt;Arduino&lt;/i&gt;" style="text;html=1;strokeColor=none;fillColor=none;align=center;verticalAlign=middle;whiteSpace=wrap;rounded=0;fontStyle=1;fontSize=13;" parent="WIyWlLk6GJQsqaUBKTNV-1" vertex="1">
          <mxGeometry x="270" y="157" width="80" height="30" as="geometry" />
        </mxCell>
        <mxCell id="1sotOOmaOnDe8E1qVTRt-26" value="Motor speed" style="text;html=1;strokeColor=none;fillColor=none;align=center;verticalAlign=middle;whiteSpace=wrap;rounded=0;fontSize=10;" parent="WIyWlLk6GJQsqaUBKTNV-1" vertex="1">
          <mxGeometry x="454" y="140" width="56" height="30" as="geometry" />
        </mxCell>
        <mxCell id="1sotOOmaOnDe8E1qVTRt-28" value="Speed Controller" style="rounded=0;whiteSpace=wrap;html=1;" parent="WIyWlLk6GJQsqaUBKTNV-1" vertex="1">
          <mxGeometry x="510" y="130" width="100" height="70" as="geometry" />
        </mxCell>
        <mxCell id="1sotOOmaOnDe8E1qVTRt-35" value="Rocket position" style="text;html=1;strokeColor=none;fillColor=none;align=center;verticalAlign=middle;whiteSpace=wrap;rounded=0;fontSize=10;" parent="WIyWlLk6GJQsqaUBKTNV-1" vertex="1">
          <mxGeometry x="585" y="95" width="60" height="30" as="geometry" />
        </mxCell>
        <mxCell id="1sotOOmaOnDe8E1qVTRt-37" value="Stream / Capture" style="rounded=0;whiteSpace=wrap;html=1;" parent="WIyWlLk6GJQsqaUBKTNV-1" vertex="1">
          <mxGeometry x="477" y="55" width="60" height="40" as="geometry" />
        </mxCell>
        <mxCell id="1sotOOmaOnDe8E1qVTRt-11" style="edgeStyle=orthogonalEdgeStyle;rounded=0;orthogonalLoop=1;jettySize=auto;html=1;entryX=-0.011;entryY=0.131;entryDx=0;entryDy=0;exitX=1;exitY=0.75;exitDx=0;exitDy=0;entryPerimeter=0;" parent="WIyWlLk6GJQsqaUBKTNV-1" source="1sotOOmaOnDe8E1qVTRt-6" target="1sotOOmaOnDe8E1qVTRt-37" edge="1">
          <mxGeometry relative="1" as="geometry" />
        </mxCell>
        <mxCell id="1sotOOmaOnDe8E1qVTRt-39" style="edgeStyle=orthogonalEdgeStyle;rounded=0;orthogonalLoop=1;jettySize=auto;html=1;entryX=0.013;entryY=0.595;entryDx=0;entryDy=0;entryPerimeter=0;" parent="WIyWlLk6GJQsqaUBKTNV-1" source="1sotOOmaOnDe8E1qVTRt-21" target="1sotOOmaOnDe8E1qVTRt-28" edge="1">
          <mxGeometry relative="1" as="geometry" />
        </mxCell>
        <mxCell id="1sotOOmaOnDe8E1qVTRt-40" style="edgeStyle=orthogonalEdgeStyle;rounded=0;orthogonalLoop=1;jettySize=auto;html=1;exitX=0.25;exitY=1;exitDx=0;exitDy=0;entryX=1.01;entryY=0.805;entryDx=0;entryDy=0;entryPerimeter=0;" parent="WIyWlLk6GJQsqaUBKTNV-1" source="1sotOOmaOnDe8E1qVTRt-28" target="1sotOOmaOnDe8E1qVTRt-21" edge="1">
          <mxGeometry relative="1" as="geometry" />
        </mxCell>
        <mxCell id="1sotOOmaOnDe8E1qVTRt-41" value="Updated motor speed" style="text;html=1;strokeColor=none;fillColor=none;align=center;verticalAlign=middle;whiteSpace=wrap;rounded=0;fontSize=10;" parent="WIyWlLk6GJQsqaUBKTNV-1" vertex="1">
          <mxGeometry x="460" y="220" width="76" height="30" as="geometry" />
        </mxCell>
        <mxCell id="1sotOOmaOnDe8E1qVTRt-49" style="edgeStyle=orthogonalEdgeStyle;rounded=0;orthogonalLoop=1;jettySize=auto;html=1;exitX=0.5;exitY=0;exitDx=0;exitDy=0;entryX=0.235;entryY=1.005;entryDx=0;entryDy=0;entryPerimeter=0;" parent="WIyWlLk6GJQsqaUBKTNV-1" source="1sotOOmaOnDe8E1qVTRt-42" target="1sotOOmaOnDe8E1qVTRt-0" edge="1">
          <mxGeometry relative="1" as="geometry" />
        </mxCell>
        <mxCell id="1sotOOmaOnDe8E1qVTRt-42" value="Horizontal Motor" style="rounded=0;whiteSpace=wrap;html=1;" parent="WIyWlLk6GJQsqaUBKTNV-1" vertex="1">
          <mxGeometry x="12" y="110" width="80" height="60" as="geometry" />
        </mxCell>
        <mxCell id="1sotOOmaOnDe8E1qVTRt-43" value="Verical Motor" style="rounded=0;whiteSpace=wrap;html=1;" parent="WIyWlLk6GJQsqaUBKTNV-1" vertex="1">
          <mxGeometry x="102" y="110" width="80" height="60" as="geometry" />
        </mxCell>
        <mxCell id="1sotOOmaOnDe8E1qVTRt-47" style="edgeStyle=orthogonalEdgeStyle;rounded=0;orthogonalLoop=1;jettySize=auto;html=1;exitX=0.5;exitY=0;exitDx=0;exitDy=0;entryX=0.5;entryY=1;entryDx=0;entryDy=0;" parent="WIyWlLk6GJQsqaUBKTNV-1" source="1sotOOmaOnDe8E1qVTRt-44" target="1sotOOmaOnDe8E1qVTRt-42" edge="1">
          <mxGeometry relative="1" as="geometry" />
        </mxCell>
        <mxCell id="1sotOOmaOnDe8E1qVTRt-44" value="Stepper Driver" style="rounded=0;whiteSpace=wrap;html=1;" parent="WIyWlLk6GJQsqaUBKTNV-1" vertex="1">
          <mxGeometry x="22" y="196" width="60" height="60" as="geometry" />
        </mxCell>
        <mxCell id="1sotOOmaOnDe8E1qVTRt-48" style="edgeStyle=orthogonalEdgeStyle;rounded=0;orthogonalLoop=1;jettySize=auto;html=1;exitX=0.5;exitY=0;exitDx=0;exitDy=0;entryX=0.5;entryY=1;entryDx=0;entryDy=0;" parent="WIyWlLk6GJQsqaUBKTNV-1" source="1sotOOmaOnDe8E1qVTRt-45" target="1sotOOmaOnDe8E1qVTRt-43" edge="1">
          <mxGeometry relative="1" as="geometry" />
        </mxCell>
        <mxCell id="1sotOOmaOnDe8E1qVTRt-45" value="Stepper Driver" style="rounded=0;whiteSpace=wrap;html=1;" parent="WIyWlLk6GJQsqaUBKTNV-1" vertex="1">
          <mxGeometry x="112" y="196" width="60" height="60" as="geometry" />
        </mxCell>
        <mxCell id="1sotOOmaOnDe8E1qVTRt-50" style="edgeStyle=orthogonalEdgeStyle;rounded=0;orthogonalLoop=1;jettySize=auto;html=1;exitX=0.25;exitY=0;exitDx=0;exitDy=0;entryX=0.827;entryY=1.014;entryDx=0;entryDy=0;entryPerimeter=0;" parent="WIyWlLk6GJQsqaUBKTNV-1" source="1sotOOmaOnDe8E1qVTRt-43" target="1sotOOmaOnDe8E1qVTRt-0" edge="1">
          <mxGeometry relative="1" as="geometry" />
        </mxCell>
        <mxCell id="XWVPZUWGON_07wP0o8BE-2" value="" style="endArrow=classic;html=1;rounded=0;entryX=0.5;entryY=1;entryDx=0;entryDy=0;" edge="1" parent="WIyWlLk6GJQsqaUBKTNV-1">
          <mxGeometry width="50" height="50" relative="1" as="geometry">
            <mxPoint x="221" y="220" as="sourcePoint" />
            <mxPoint x="53" y="256" as="targetPoint" />
            <Array as="points">
              <mxPoint x="221" y="256" />
              <mxPoint x="221" y="280" />
              <mxPoint x="53" y="280" />
            </Array>
          </mxGeometry>
        </mxCell>
      </root>
    </mxGraphModel>
  </diagram>
</mxfile>
